<svg xmlns="http://www.w3.org/2000/svg" viewBox="0 0 32 32" fill="none">
  <path fill="#5ECAC7" d="M16 2.667C8.64 2.667 2.667 8.64 2.667 16c0 2.773.853 5.344 2.32 7.493L4 30l6.72-1.973A13.26 13.26 0 0 0 16 29.333c7.36 0 13.333-5.973 13.333-13.333 0-7.36-5.973-13.333-13.333-13.333Zm0 24.533c-2.08 0-4.053-.533-5.76-1.547l-.413-.24-3.947 1.147 1.16-3.84-.267-.4a10.63 10.63 0 0 1-1.68-5.653c0-5.867 4.8-10.667 10.667-10.667S26.667 10.133 26.667 16 21.867 27.2 16 27.2Zm5.867-8.4c-.32-.16-1.867-.907-2.16-1.013-.293-.107-.507-.16-.72.16-.213.32-.827 1.013-1.013 1.227-.187.213-.373.24-.693.08-.32-.16-1.347-.493-2.56-1.573-.947-.84-1.587-1.867-1.773-2.187-.187-.32-.02-.493.14-.653.147-.147.32-.373.48-.56.16-.187.213-.32.32-.533.107-.213.053-.4-.027-.56-.08-.16-.72-1.733-.987-2.373-.253-.613-.507-.533-.72-.547l-.613-.013c-.213 0-.56.08-.853.4s-1.12 1.093-1.12 2.667 1.147 3.093 1.307 3.307c.16.213 2.24 3.413 5.44 4.773.76.327 1.36.52 1.827.667.767.24 1.467.207 2.027.127.62-.093 1.867-.76 2.133-1.493.267-.733.267-1.36.187-1.493-.08-.133-.293-.213-.613-.373Z"/>
</svg>
